{
	"asset":{
		"generator":"Khronos glTF Blender I/O v3.5.30",
		"version":"2.0"
	},
	"scene":0,
	"scenes":[
		{
			"name":"Scene",
			"nodes":[
				0
			]
		}
	],
	"nodes":[
		{
			"mesh":0,
			"name":"Relocatable+Turntable+Bus.001",
			"scale":[
				0.01938462257385254,
				0.01938462257385254,
				0.01938462257385254
			],
			"translation":[
				60254.734375,
				-250.58131408691406,
				-9528.3642578125
			]
		}
	],
	"meshes":[
		{
			"name":"Relocatable+Turntable+Bus.007",
			"primitives":[
				{
					"attributes":{
						"POSITION":0,
						"NORMAL":1
					},
					"indices":2
				}
			]
		}
	],
	"accessors":[
		{
			"bufferView":0,
			"componentType":5126,
			"count":60994,
			"max":[
				63863.9921875,
				4156.71484375,
				10017.8330078125
			],
			"min":[
				-63902.6171875,
				250.58131408691406,
				6292.86865234375
			],
			"type":"VEC3"
		},
		{
			"bufferView":1,
			"componentType":5126,
			"count":60994,
			"type":"VEC3"
		},
		{
			"bufferView":2,
			"componentType":5123,
			"count":90108,
			"type":"SCALAR"
		}
	],
	"bufferViews":[
		{
			"buffer":0,
			"byteLength":731928,
			"byteOffset":0,
			"target":34962
		},
		{
			"buffer":0,
			"byteLength":731928,
			"byteOffset":731928,
			"target":34962
		},
		{
			"buffer":0,
			"byteLength":180216,
			"byteOffset":1463856,
			"target":34963
		}
	],
	"buffers":[
		{
			"byteLength":1644072,
			"uri":"data:application/octet-stream;base64,"
		}
	]
}
