{
	"asset":{
		"generator":"Khronos glTF Blender I/O v3.5.30",
		"version":"2.0"
	},
	"scene":0,
	"scenes":[
		{
			"name":"Scene",
			"nodes":[
				1
			]
		}
	],
	"nodes":[
		{
			"mesh":0,
			"name":"bus.1"
		},
		{
			"children":[
				0
			],
			"name":"RootNode.0",
			"scale":[
				0.009999999776482582,
				0.009999999776482582,
				0.009999999776482582
			]
		}
	],
	"materials":[
		{
			"doubleSided":true,
			"name":"Material_0",
			"pbrMetallicRoughness":{}
		}
	],
	"meshes":[
		{
			"name":"Mesh_0",
			"primitives":[
				{
					"attributes":{
						"POSITION":0,
						"TEXCOORD_0":1,
						"NORMAL":2
					},
					"indices":3,
					"material":0
				}
			]
		}
	],
	"accessors":[
		{
			"bufferView":0,
			"componentType":5126,
			"count":24331,
			"max":[
				95.07769775390625,
				211.2194366455078,
				333.887939453125
			],
			"min":[
				-95.07769775390625,
				-2.384185791015625e-06,
				-333.887939453125
			],
			"type":"VEC3"
		},
		{
			"bufferView":1,
			"componentType":5126,
			"count":24331,
			"type":"VEC2"
		},
		{
			"bufferView":2,
			"componentType":5126,
			"count":24331,
			"type":"VEC3"
		},
		{
			"bufferView":3,
			"componentType":5123,
			"count":95646,
			"type":"SCALAR"
		}
	],
	"bufferViews":[
		{
			"buffer":0,
			"byteLength":291972,
			"byteOffset":0,
			"target":34962
		},
		{
			"buffer":0,
			"byteLength":194648,
			"byteOffset":291972,
			"target":34962
		},
		{
			"buffer":0,
			"byteLength":291972,
			"byteOffset":486620,
			"target":34962
		},
		{
			"buffer":0,
			"byteLength":191292,
			"byteOffset":778592,
			"target":34963
		}
	],
	"buffers":[
		{
			"byteLength":969884,
			"uri":"untitled.bin"
		}
	]
}
